<svg xmlns="http://www.w3.org/2000/svg" viewBox="0 0 24 24" preserveAspectRatio="xMidYMid meet" focusable="false" class="style-scope yt-icon" style="pointer-events: none; display: block; width: 100%; height; 100%;" fill="white">
  <g class="style-scope yt-icon">
    <path d="M16,4v4h4V4H16zM19,7h-2V5h2V7zM16,10v4h4v-4H16zM19,13h-2v-2h2V13zM10,4v4h4V4H10zM13,7h-2V5h2V7zM10,10v4h4v-4H10zM13,13h-2v-2h2V13zM16,16v4h4v-4H16zM19,19h-2v-2h2V19zM4,4v4h4V4H4zM7,7H5V5h2V7zM4,10v4h4v-4H4zM7,13H5v-2h2V13zM4,16v4h4v-4H4zM7,19H5v-2h2V19z" class="style-scope yt-icon"></path>
  </g>
</svg>
